<svg width="25" height="20" fill="none" xmlns="http://www.w3.org/2000/svg"><path d="M2.302 17.817C.885 16.312.125 14.625.125 11.89c0-4.812 3.378-9.126 8.291-11.258l1.228 1.895c-4.585 2.48-5.482 5.699-5.84 7.728.739-.382 1.706-.515 2.653-.427 2.48.23 4.436 2.266 4.436 4.797a4.813 4.813 0 01-4.813 4.813 5.323 5.323 0 01-3.778-1.621zm13.75 0c-1.417-1.505-2.177-3.192-2.177-5.927 0-4.812 3.378-9.126 8.291-11.258l1.228 1.895c-4.585 2.48-5.482 5.699-5.84 7.728.739-.382 1.706-.515 2.653-.427 2.48.23 4.436 2.266 4.436 4.797a4.813 4.813 0 01-4.813 4.813 5.324 5.324 0 01-3.778-1.621z" fill="#8D8D8D"/></svg>