<svg width="17" height="18" fill="none" xmlns="http://www.w3.org/2000/svg"><path fill-rule="evenodd" clip-rule="evenodd" d="M2.003 1.042a1.854 1.854 0 012.773.173l1.907 2.45c.35.45.473 1.035.335 1.588L6.437 7.58a.72.72 0 00.189.683l2.61 2.61a.72.72 0 00.685.19l2.325-.581a1.853 1.853 0 011.588.335l2.45 1.906c.88.685.961 1.987.173 2.774l-1.099 1.099c-.786.786-1.96 1.131-3.056.746a19.8 19.8 0 01-7.448-4.697A19.8 19.8 0 01.158 5.198C-.227 4.103.118 2.927.905 2.14l1.098-1.099z" fill="#C68457"/></svg>