<svg width="71" height="71" fill="none" xmlns="http://www.w3.org/2000/svg"><path d="M51.822 37.143c-.028-4.728 2.114-8.292 6.441-10.92-2.42-3.467-6.08-5.374-10.907-5.741-4.569-.36-9.568 2.662-11.398 2.662-1.935 0-6.358-2.537-9.84-2.537-7.182.11-14.816 5.727-14.816 17.153 0 3.377.617 6.865 1.851 10.456 1.65 4.729 7.6 16.315 13.805 16.128 3.245-.076 5.54-2.302 9.762-2.302 4.098 0 6.22 2.302 9.84 2.302 6.26-.09 11.64-10.622 13.208-15.365-8.397-3.96-7.946-11.593-7.946-11.836zm-.735 18.513c-.992 1.38-1.99 2.468-2.906 3.169-.727.554-1.29.79-1.663.804-.624-.007-1.228-.16-2.407-.61a5.534 5.534 0 00-.29-.111l-.306-.118c-1.206-.465-1.927-.714-2.85-.957a15.546 15.546 0 00-3.945-.513c-1.4 0-2.718.173-4.028.5-.964.242-1.775.512-2.96.956l-.708.27c-.243.09-.43.16-.603.222-.721.25-1.179.354-1.588.36a.617.617 0 01-.125-.013 1.3 1.3 0 01-.284-.09c-.312-.125-.686-.354-1.11-.68-.97-.755-2.038-1.941-3.127-3.46-1.906-2.676-3.709-6.226-4.576-8.715-1.067-3.106-1.594-6.08-1.594-8.917 0-4.174 1.234-7.35 3.355-9.506a9.875 9.875 0 016.782-2.932c.409.006 1.005.104 1.76.312.597.159 1.249.374 2.13.686.263.097 1.171.423 1.282.465.534.194.936.332 1.331.457 1.262.402 2.24.624 3.3.624 1.075 0 1.998-.229 3.308-.68.492-.166 2.281-.831 2.6-.942 1.775-.631 3.085-.971 4.216-1.054a5.8 5.8 0 01.915-.007c1.574.125 2.919.437 4.063.957-2.607 3.009-3.952 6.69-3.945 10.982-.021 1.02.062 2.198.353 3.592a17.143 17.143 0 002.628 6.171 17.7 17.7 0 003.793 4.008c-.797 1.643-1.775 3.342-2.801 4.77zm-6.553-39.66c3.516-4.174 3.197-7.974 3.093-9.34-3.106.18-6.698 2.115-8.743 4.493-2.254 2.552-3.578 5.707-3.294 9.264 3.356.256 6.42-1.47 8.944-4.417z" fill="#C68457"/></svg>