<svg width="61" height="55" fill="none" xmlns="http://www.w3.org/2000/svg"><path d="M19.197 34.434H2.306v-4.187h16.827c1.449 0 2.647-.24 3.595-.719.948-.49 1.652-1.161 2.11-2.013.458-.863.687-1.854.687-2.973 0-1.108-.23-2.099-.687-2.972-.458-.874-1.156-1.56-2.094-2.061-.937-.512-2.12-.768-3.547-.768h-6.968V47.25H7.308V14.523h11.889c2.482 0 4.554.447 6.216 1.342 1.673.895 2.924 2.099 3.755 3.612.842 1.512 1.263 3.196 1.263 5.05 0 1.874-.426 3.563-1.279 5.065-.841 1.492-2.098 2.674-3.771 3.548-1.662.862-3.723 1.294-6.184 1.294zm.24 2.748v4.203H2.305v-4.203h17.13zM34.952 39.5a2 2 0 10-2.904 2.75l2.904-2.75zm7.463 10.783l-1.452 1.375a2 2 0 002.904 0l-1.452-1.375zm17.537-15.6a2 2 0 00-2.904-2.751l2.904 2.751zM32.048 42.25l8.915 9.408 2.904-2.75-8.915-9.409-2.904 2.751zm11.819 9.408l16.085-16.975-2.904-2.751-16.085 16.975 2.904 2.751z" fill="#C68457"/></svg>