<svg width="65" height="64" fill="none" xmlns="http://www.w3.org/2000/svg"><path d="M8.5 32h24v4h-24v-4zm-4-10h20v4h-20v-4z" fill="#C68457"/><path d="M60.338 33.212l-6-14A1.999 1.999 0 0052.5 18h-6v-4a2 2 0 00-2-2h-32v4h30v25.112A7.984 7.984 0 0038.784 46H26.216a8 8 0 100 4h12.568a7.96 7.96 0 0015.432 0H58.5a2 2 0 002-2V34c0-.27-.055-.54-.162-.788zM18.5 52a4 4 0 110-8 4 4 0 010 8zm28-30h4.68l4.288 10H46.5V22zm0 30a4 4 0 110-8 4 4 0 010 8zm10-6h-2.284a7.99 7.99 0 00-7.716-6v-4h10v10z" fill="#C68457"/></svg>