<svg width="26" height="24" fill="none" xmlns="http://www.w3.org/2000/svg"><path d="M10.424 1.39a.5.5 0 10-.848-.53l.848.53zm5.48-.51a.5.5 0 10-.871.49l.872-.49zm8.662 11.555l-.48-.14.48.14zm-2.662 9.125l-.48-.14.48.14zM5 23.5h14.985v-1H5v1zm17.385-1.8l2.662-9.125-.96-.28-2.662 9.125.96.28zM.292 12.481l2.282 9.125.97-.242-2.281-9.125-.97.242zm4.24-3.106H2.717v1H4.53v-1zm.423.765l5.469-8.75-.848-.53-5.469 8.75.848.53zm17.69-.765h-2.254v1h2.255v-1zm-2.254 0H4.53v1h15.86v-1zm.435.255L15.905.88l-.872.49 4.922 8.75.871-.49zM1.263 12.239a1.5 1.5 0 011.455-1.864v-1a2.5 2.5 0 00-2.426 3.106l.97-.242zm23.783.336a2.5 2.5 0 00-2.4-3.2v1c1 0 1.72.96 1.44 1.92l.96.28zM19.984 23.5a2.5 2.5 0 002.4-1.8l-.96-.28a1.5 1.5 0 01-1.44 1.08v1zM5 22.5a1.5 1.5 0 01-1.455-1.136l-.97.242A2.5 2.5 0 004.999 23.5v-1z" fill="#C68457"/><path d="M7.813 14.25v4.375m9.843-4.375v4.375" stroke="#C68457" stroke-linecap="round"/></svg>