<svg width="75" height="50" fill="none" xmlns="http://www.w3.org/2000/svg"><rect x=".837" y="1.241" width="73.325" height="47.518" rx="3.913" fill="#F3F3F3" stroke="#C68457" stroke-width=".87"/><path stroke="#C68457" stroke-width="3" d="M9.004 16.511h18.28"/><circle cx="54.057" cy="17.903" r="4.194" fill="#C68457"/><circle cx="59.649" cy="17.903" r="4.194" fill="#C68457"/><path d="M13.088 32.73v7.109h-1.646v-5.254l-1.62.474v-1.25l3.115-1.08h.15zm5.8 0v7.109h-1.645v-5.254l-1.62.474v-1.25l3.114-1.08h.152zm5.801 0v7.109h-1.645v-5.254l-1.621.474v-1.25l3.115-1.08h.151zm5.801 0v7.109h-1.645v-5.254l-1.621.474v-1.25l3.115-1.08h.151zm5.801 0v7.109h-1.645v-5.254l-1.622.474v-1.25l3.116-1.08h.151zm5.8 0v7.109h-1.645v-5.254l-1.62.474v-1.25l3.114-1.08h.152z" fill="#C68457"/></svg>