<svg width="65" height="66" fill="none" xmlns="http://www.w3.org/2000/svg"><path d="M39.762.985c-.296.167-.864.812-1.702 1.959a63.292 63.292 0 01-1.327 1.779c-.039.039-.31-.065-.593-.22-1.173-.67-2.63.065-2.952 1.47-.155.696.051 1.212 1.07 2.682l.85 1.224-.438.335c-.58.439-1.096 1.521-1.096 2.256 0 .67.374 1.599.838 2.076l.31.322-2.32 1.934c-3.017 2.487-6.484 6.822-6.484 7.26 0 .541 1.599.127 2.166.127.36 0 3.041-3.598 3.776-4.28.477-.452 1.83-1.638 3.004-2.63l2.127-1.818 3.75-.013h3.739l2.772 2.359c1.52 1.302 3.222 2.862 3.79 3.455 1.83 1.907 3.325 4.447 4.176 7.05.786 2.373.825 2.837.902 8.805.078 5.17.09 5.517.323 5.775.335.374 1.134.374 1.508 0 .258-.258.27-.322.206-5.89-.052-5.222-.077-5.724-.335-6.923-.838-3.816-2.501-7.09-5.066-9.977-.851-.98-3.584-3.417-5.633-5.054l-.297-.245.335-.45c1.019-1.329.967-2.888-.129-4.035l-.541-.568.877-1.34c.49-.748.928-1.56.98-1.805.115-.657-.143-1.38-.658-1.843-.787-.684-1.74-.774-2.578-.22-.297.194-.323.168-1.638-1.495-.734-.94-1.52-1.843-1.765-1.998-.542-.36-1.328-.387-1.947-.064zm2.436 3.7c1.754 2.255 2.32 2.577 3.597 1.997.322-.141.515-.18.464-.09-.052.09-.49.748-.98 1.47l-.876 1.327h-3.584l-3.57-.013-.607-.992a45.154 45.154 0 00-.889-1.405l-.27-.426.463.194c1.148.477 1.728.129 3.43-2.063.747-.954 1.379-1.727 1.417-1.727.039 0 .67.773 1.405 1.727zm3.43 7.09a1 1 0 01.322.708c0 .245-.117.516-.323.71l-.31.321H36.27l-.31-.322a1.005 1.005 0 01-.322-.709c0-.245.116-.516.322-.709l.31-.322h9.049l.31.322z" fill="#C68457"/><path d="M26.433 23.337c-.799.722-2.256 4.357-2.797 7-.27 1.314-.296 1.817-.348 6.857l-.052 5.44.335.335c.387.387.954.426 1.38.078l.31-.245.076-5.401c.052-4.435.104-5.582.297-6.484a23.06 23.06 0 011.818-5.234c.386-.76.708-1.495.708-1.637 0-.348-.695-.993-1.082-.993-.18 0-.464.13-.645.284zm21.849.18c-.4.503-.335.838.284 1.676 1.637 2.23 2.746 4.796 3.313 7.683.103.541.245.812.477 1.006.722.567 1.585.116 1.585-.851 0-.722-.567-2.94-1.095-4.331-.71-1.831-1.92-3.92-2.926-5.066-.516-.593-1.225-.632-1.638-.117zm-8.198.633c-.27.257-.322.437-.322 1.095 0 .528-.051.773-.155.773-.36 0-1.753.774-2.32 1.276-.85.761-1.508 2.102-1.611 3.3-.13 1.663.45 3.159 1.65 4.242 1.044.94 1.663 1.16 3.996 1.43.825.103 1.688.684 2.14 1.444.31.529.36.76.36 1.599 0 .863-.05 1.044-.386 1.61a3.485 3.485 0 01-1.018 1.02c-.568.347-.748.386-1.625.386-.876 0-1.057-.039-1.624-.387-.825-.515-1.302-1.302-1.444-2.372-.09-.618-.193-.89-.412-1.07-.413-.335-.98-.296-1.38.103-.309.31-.322.387-.257 1.187.116 1.16.786 2.526 1.611 3.26.567.504 1.96 1.277 2.32 1.277.104 0 .155.245.155.773 0 .658.052.838.322 1.096.413.425 1.006.425 1.418 0 .271-.258.323-.438.323-1.096 0-.528.051-.773.167-.773.078 0 .516-.168.967-.387 2.217-1.044 3.416-3.558 2.81-5.904-.27-1.082-.722-1.817-1.572-2.59-.864-.787-1.754-1.135-3.3-1.303-1.444-.141-2.153-.528-2.746-1.47-.348-.566-.387-.747-.387-1.623 0-.877.039-1.057.387-1.625a3.486 3.486 0 011.018-1.018c.567-.348.748-.387 1.624-.387.877 0 1.057.039 1.625.387.825.516 1.301 1.302 1.443 2.372.09.619.194.89.413 1.07.412.335.98.296 1.38-.103.308-.31.321-.387.257-1.186-.116-1.16-.786-2.527-1.611-3.262-.568-.502-1.96-1.276-2.308-1.276-.116 0-.167-.245-.167-.773 0-.658-.052-.838-.323-1.096a1.005 1.005 0 00-.709-.322c-.245 0-.515.116-.709.322zm12.375 12.374c-.31.297-.322.4-.322 1.74 0 1.341.013 1.444.322 1.74.193.207.464.323.709.323.245 0 .516-.116.709-.322.31-.297.322-.4.322-1.74 0-1.341-.013-1.444-.322-1.74a1.005 1.005 0 00-.709-.323c-.245 0-.516.116-.709.322z" fill="#C68457"/><path d="M2.72 42.595a3.367 3.367 0 00-1.728 1.47c-.335.554-.36.734-.412 2.178-.04 1.547-.284 4.512.05 4.834.425.438 1.457.27 1.87-.155.296-.283.128-3.17.128-4.383 0-1.276.013-1.315.374-1.688l.374-.374h2.398c2.333 0 2.385.013 2.745.31l.361.309.04 8.52c.038 9.307.05 9.14-.697 9.423-.18.078-1.25.13-2.398.13-2.256 0-2.771-.117-3.055-.723-.103-.219-.142-1.972-.142-5.8 0-3.326-.051-5.57-.128-5.724-.065-.129-.31-.296-.529-.374-.516-.18-1.237.103-1.34.529-.04.167-.065 2.875-.04 6.033.04 5.633.04 5.749.323 6.264.387.735 1.25 1.431 2.024 1.663.902.271 4.924.271 5.84 0 .811-.245 1.598-.98 1.907-1.779l.22-.58 1.172-.322c2.32-.657 4.525-.864 6.24-.619.566.078 3.106.76 5.633 1.496 5.35 1.56 6.445 1.753 8.623 1.508.735-.09 1.857-.297 2.501-.477 1.405-.374 6.072-2.41 6.381-2.784.451-.542.232-1.29-.438-1.521-.374-.13-.542-.078-2.089.644-3.918 1.843-4.82 2.14-6.909 2.269-1.74.103-2.604-.065-7.322-1.457-2.294-.67-4.653-1.315-5.22-1.418-2.024-.348-5.62-.18-7.774.387l-.696.18V46.732l1.65-.554c1.973-.67 3.004-.837 4.19-.67.477.077 2.823.773 5.22 1.547 6.291 2.063 5.698 1.947 10.352 2.05l3.944.077.477.374c1.16.876 1.109 2.449-.103 3.351-.348.258-.541.271-6.677.336l-6.317.064-.245.31c-.348.425-.309.992.078 1.379l.322.322 6.407-.039 6.42-.039.734-.36c.451-.22.967-.62 1.315-1.019l.567-.644 10.351-3.274c5.698-1.792 10.532-3.275 10.725-3.275 1.212-.013 2.32 1.34 2.088 2.553-.116.657-.528 1.276-1.005 1.534a458.37 458.37 0 01-5.698 2.578c-2.977 1.327-14.785 6.175-15.495 6.684-.503.593.362 1.463 1.148 1.463.541 0 20.535-8.598 21.386-9.217 1.121-.812 1.714-1.972 1.701-3.339 0-1.998-1.302-3.828-3.068-4.318-1.212-.335-1.779-.194-11.988 3.055l-9.668 3.08-.206-.721c-.245-.915-.632-1.547-1.302-2.114-.967-.838-1.264-.89-5.84-.98-4.756-.103-3.596.129-10.338-2.101-2.617-.877-4.525-1.431-5.182-1.534-1.418-.194-2.681 0-4.615.709l-1.521.567-.22-.425c-.347-.658-1.095-1.302-1.752-1.521-.787-.271-5.376-.284-6.123-.026z" fill="#C68457"/><path d="M5.02 55.215c-.773.774.078 2.037 1.084 1.612.374-.155.657-.593.657-1.044 0-.4-.567-.89-1.031-.89-.245 0-.516.116-.71.322zm10.12.4c-.18.039-.58.09-.889.129-.722.09-1.173.529-1.173 1.121 0 .271.103.529.258.67.245.22.528.246 2.939.259 2.655.013 2.681.013 4.46.49 2.076.554 2.424.58 2.785.193.309-.335.322-.632.051-1.147-.245-.477-.593-.632-2.578-1.135-2.243-.567-4.46-.786-5.852-.58zm-9.86 3.3c-.387.22-.568.516-.58.915 0 .49.515.993 1.03.993.465 0 1.032-.49 1.032-.89 0-.425-.271-.876-.606-1.03-.387-.181-.554-.168-.877.012z" fill="#C68457"/></svg>