<svg width="63" height="63" fill="none" xmlns="http://www.w3.org/2000/svg"><path d="M26.658.655c-.593.193-1.61 1.235-1.792 1.852-.085.279-.145.812-.145 1.187v.678h-1.647c-2.059 0-2.47.109-3.258.908-.799.787-.908 1.199-.908 3.257v1.647h-6.09c-3.803 0-6.37.049-6.818.133-2.567.46-4.904 2.797-5.364 5.365-.181 1.005-.181 40.31 0 41.315C1.096 59.564 3.433 61.9 6 62.36c.497.097 8.707.133 26.41.133 28.976 0 26.385.097 27.341-.969.29-.314.594-.799.666-1.065.097-.34.146-1.986.146-5.558v-5.098l.35-.145c.497-.194 1.103-.824 1.357-1.393.206-.448.23-.92.23-6.115 0-5.194-.024-5.667-.23-6.115-.254-.569-.86-1.198-1.356-1.392l-.351-.145V29.4c0-3.572-.049-5.22-.146-5.558-.072-.267-.375-.75-.666-1.066-.69-.762-1.283-.968-2.845-.968h-1.187v-9.397c0-6.914-.036-9.53-.145-9.88-.073-.267-.376-.751-.666-1.066-.933-1.041.097-.969-14.737-.957-9.178.012-13.21.049-13.513.146zm26.821 2.082l.303.29V21.81l-1.962-.025-1.962-.036-.145-.787c-.969-5.17-6.078-8.682-11.213-7.701-4.008.775-7.035 3.778-7.773 7.701l-.146.787-1.961.036-1.962.025V3.028l.303-.29.29-.303h25.937l.291.302zM24.721 14.06v7.75h-3.875V6.902l.302-.29c.279-.29.352-.303 1.938-.303h1.635v7.75zm-5.813 2.906v4.856l-6.381-.037-6.393-.036-.787-.375c-1.15-.557-1.853-1.223-2.386-2.325-.436-.872-.46-.981-.46-2.07 0-1.054.036-1.236.387-1.975.206-.447.606-1.053.872-1.344.533-.58 1.635-1.223 2.386-1.404.266-.06 3.233-.11 6.623-.121l6.14-.012v4.843zm22.947-1.756c1.32.279 2.736 1.054 3.741 2.059.472.472 1.042 1.162 1.26 1.538.447.75.992 2.252.992 2.712v.29H32.591v-.29c0-.412.521-1.913.896-2.53a7.995 7.995 0 013.536-3.258c1.429-.666 3.197-.86 4.831-.52zm-38.64 7.18c.424.34 1.357.824 2.12 1.09.508.182 2.87.207 26.687.267l26.143.06.23.291c.218.267.23.533.23 5.292v5.013H52.91c-6.49 0-6.745.036-8.44.872-2.543 1.259-4.25 4.008-4.25 6.877 0 1.998.823 3.984 2.24 5.389.969.968 1.828 1.513 3.112 1.974l.884.326 6.09.037 6.08.036v10.05l-.303.303-.291.29-25.95-.023-25.948-.037-.812-.387c-1.126-.533-1.828-1.211-2.373-2.313l-.448-.92-.036-17.546c-.025-16.77-.025-17.546.181-17.388.121.085.376.29.57.448zM60.32 36.582c.23.23.243.4.243 5.57s-.013 5.34-.243 5.57c-.23.23-.4.243-6.635.243-5.28 0-6.515-.037-7.084-.182-3.124-.811-5.05-3.984-4.262-7.023a5.984 5.984 0 014.214-4.238c.496-.133 1.925-.17 7.083-.17 6.285-.012 6.442-.012 6.684.23z" fill="#C68457"/><path d="M31.865 4.59c-.181.145-.303.424-.375.872-.17 1.077-.727 1.634-1.804 1.804-1.114.182-1.09.109-1.09 3.911v3.257l.302.291a.944.944 0 00.666.303c.23 0 .485-.11.666-.303l.303-.29v-5.28l.787-.412c.848-.436 1.368-.993 1.768-1.877l.242-.557h1.211c1.126 0 1.235-.024 1.502-.302a.944.944 0 00.302-.666.944.944 0 00-.302-.666c-.279-.29-.34-.303-2.095-.303-1.574 0-1.853.024-2.083.218zm12.532.085a.944.944 0 00-.303.666c0 .23.109.484.303.666.266.278.375.302 1.489.302h1.199l.29.618a3.95 3.95 0 001.877 1.889l.654.29v5.328l.303.291a.944.944 0 00.666.303c.23 0 .484-.11.666-.303l.302-.29v-3.258c0-3.802.025-3.73-1.09-3.911-1.077-.17-1.634-.727-1.804-1.804-.17-1.03-.29-1.09-2.458-1.09-1.755 0-1.816.012-2.094.303zM8.555 26.955a.944.944 0 00-.303.666c0 .23.109.484.303.666l.29.303h44.343l.29.302c.267.255.303.4.303 1.15 0 .751.036.897.303 1.15.387.4.944.4 1.332 0 .266-.253.302-.399.302-1.162 0-.472-.06-1.09-.145-1.368-.194-.666-1.199-1.67-1.865-1.865-.387-.108-5.618-.145-22.68-.145H8.846l-.29.303zm45.53 26.155c-.267.254-.303.4-.303 1.15 0 .75-.036.896-.303 1.15l-.29.303H8.846l-.291.303c-.4.387-.4.944 0 1.332l.29.303H31.03c17.06 0 22.292-.037 22.68-.146.665-.193 1.67-1.198 1.864-1.864.085-.279.145-.896.145-1.369 0-.763-.036-.908-.303-1.162a.944.944 0 00-.665-.303.944.944 0 00-.666.303zM47 39.403c-.593.193-1.61 1.235-1.792 1.852-.34 1.139-.097 2.047.763 2.894 1.235 1.248 2.942 1.223 4.093-.06 1.09-1.211 1.09-2.664 0-3.875-.788-.872-1.914-1.175-3.064-.811zm1.635 2.082c.605.594.181 1.635-.666 1.635-.497 0-.969-.472-.969-.969 0-.496.472-.968.969-.968.23 0 .484.109.666.302z" fill="#C68457"/></svg>