<svg width="25" height="25" fill="none" xmlns="http://www.w3.org/2000/svg"><path d="M10.816 2.264a.5.5 0 10-.85-.528l.85.528zm5.23-.508a.5.5 0 10-.874.488l.873-.488zm8.213 11.2l-.48-.138.48.139zM3.753 21.483l-.485.12.485-.12zM5.694 23.5h14.151v-1H5.695v1zm16.552-1.804l2.493-8.6-.96-.278-2.493 8.6.96.278zM1.131 13.003l2.137 8.6.97-.241-2.136-8.6-.97.24zM5.174 9.9H3.558v1h1.616v-1zm.425.764l5.217-8.4-.85-.528-5.217 8.4.85.528zM22.338 9.9h-2.034v1h2.034v-1zm-2.034 0H5.174v1h15.13v-1zm.437.256l-4.696-8.4-.873.488 4.696 8.4.873-.488zM2.1 12.762A1.5 1.5 0 013.559 10.9v-1a2.5 2.5 0 00-2.427 3.103l.971-.241zm22.638.334a2.5 2.5 0 00-2.4-3.196v1a1.5 1.5 0 011.44 1.918l.961.278zM19.845 23.5a2.5 2.5 0 002.401-1.804l-.96-.278a1.5 1.5 0 01-1.44 1.082v1zm-14.15-1a1.5 1.5 0 01-1.456-1.138l-.97.24A2.5 2.5 0 005.693 23.5v-1z" fill="#fff"/><path d="M8.19 14.688v4.374m9.843-4.375v4.376" stroke="#fff" stroke-linecap="round"/></svg>