<svg width="28" height="23" fill="none" xmlns="http://www.w3.org/2000/svg"><path d="M2.101 10.439l.008-.003.007-.003c7.517-3.105 12.525-5.15 15.028-6.137 3.582-1.413 5.734-2.237 7.11-2.71 1.383-.477 1.933-.58 2.333-.586.07-.001.202.007.345.04a.903.903 0 01.34.14c.11.085.153.201.18.355.03.16.066.545.038.824-.385 3.838-2.06 13.196-2.914 17.527-.349 1.767-.972 2.075-1.315 2.105-.609.053-1.164-.132-1.773-.471a14.05 14.05 0 01-.95-.599l-.165-.112c-.28-.19-.578-.39-.889-.584a186.492 186.492 0 01-2.895-1.84l-.116-.076a204.3 204.3 0 00-2.742-1.748c-.612-.382-.9-.68-1.018-.895a.47.47 0 01-.014-.478c.096-.206.297-.444.613-.749.136-.13.283-.265.44-.41l.062-.056c.18-.164.37-.339.559-.525.083-.082.498-.447 1.093-.972.685-.603 1.608-1.417 2.536-2.247a113.87 113.87 0 002.358-2.16c.323-.308.601-.582.804-.798.1-.107.19-.206.258-.293a1.56 1.56 0 00.097-.136.725.725 0 00.092-.209c.025-.1.034-.244.011-.39a.882.882 0 00-.294-.544.898.898 0 00-.582-.203 1.732 1.732 0 00-.376.047h-.003c-.084.018-.166.06-.198.076l-.003.001c-.051.026-.113.06-.183.099-.142.079-.334.192-.577.338-.485.293-1.182.724-2.089 1.292-1.815 1.137-4.478 2.83-7.99 5.077h0l-.003.002c-.982.64-1.815.913-2.513.898-.403-.008-1.03-.12-1.75-.29a34.81 34.81 0 01-2.12-.587 56.95 56.95 0 00-.599-.18c-.566-.17-1.029-.307-1.38-.469-.23-.105-.354-.196-.415-.267-.042-.05-.053-.084-.045-.146.001-.007.03-.123.316-.325.27-.19.69-.4 1.283-.623z" stroke="#fff"/></svg>