<svg width="23" height="25" fill="none" xmlns="http://www.w3.org/2000/svg"><mask id="path-1-inside-1_453_5348" fill="#fff"><path fill-rule="evenodd" clip-rule="evenodd" d="M11.5 23C17.851 23 23 17.851 23 11.5S17.851 0 11.5 0 0 5.149 0 11.5c0 1.764.397 3.434 1.106 4.928.088.184.124.39.096.593l-.947 6.83a1 1 0 001.507.994l4.4-2.653c.285-.173.637-.188.946-.06 1.353.56 2.836.868 4.392.868z"/></mask><path d="M7.108 22.131l.382-.924-.382.924zm-6.853 1.72l-.99-.137.99.137zm.851-7.423l.904-.43-.904.43zM22 11.5C22 17.299 17.299 22 11.5 22v2C18.404 24 24 18.404 24 11.5h-2zM11.5 1C17.299 1 22 5.701 22 11.5h2C24 4.596 18.404-1 11.5-1v2zM1 11.5C1 5.701 5.701 1 11.5 1v-2C4.596-1-1 4.596-1 11.5h2zm1.01 4.499A10.455 10.455 0 011 11.5h-2c0 1.915.431 3.732 1.203 5.357l1.807-.858zm-.765 7.99l.947-6.83-1.98-.276-.948 6.83 1.981.276zm4.4-2.654l-4.4 2.654L2.278 25.7l4.4-2.653-1.033-1.713zM11.5 22c-1.422 0-2.776-.282-4.01-.793l-.765 1.848c1.473.61 3.086.945 4.775.945v-2zm-4.822 1.048c-.003.002-.002 0 .006 0 .01-.001.024 0 .041.008l.765-1.849a2.052 2.052 0 00-1.845.128l1.033 1.713zm-7.414.666C-.966 25.38.837 26.57 2.278 25.7l-1.033-1.71-1.98-.275zm.939-6.857c.01.021.008.03.008.026l1.981.275a2.048 2.048 0 00-.182-1.16l-1.807.859z" fill="#C68457" mask="url(#path-1-inside-1_453_5348)"/></svg>