<svg width="25" height="25" fill="none" xmlns="http://www.w3.org/2000/svg"><mask id="path-1-inside-1_657_4143" fill="#fff"><path fill-rule="evenodd" clip-rule="evenodd" d="M12.5 22.891c6.351 0 11.5-5.124 11.5-11.445C24 5.124 18.851 0 12.5 0S1 5.124 1 11.446c0 2.135.588 4.134 1.61 5.845L1.427 25 8.6 22.216a11.53 11.53 0 003.901.675z"/></mask><path d="M2.61 17.291l.99.152.054-.356-.185-.309-.858.513zM1.427 25l-.988-.152-.263 1.71 1.613-.626L1.426 25zM8.6 22.216l.338-.941-.352-.126-.348.135.362.932zM23 11.446c0 5.764-4.697 10.445-10.5 10.445v2c6.9 0 12.5-5.567 12.5-12.445h-2zM12.5 1C18.303 1 23 5.681 23 11.446h2C25 4.568 19.4-1 12.5-1v2zM2 11.446C2 5.68 6.697 1 12.5 1v-2C5.6-1 0 4.568 0 11.446h2zm1.47 5.332A10.352 10.352 0 012 11.446H0c0 2.321.64 4.497 1.753 6.359l1.716-1.027zm-1.055 8.374l1.184-7.709-1.977-.304-1.184 7.71 1.977.303zm5.822-3.868l-7.173 2.784.724 1.864 7.173-2.784-.724-1.864zm4.263.607c-1.253 0-2.452-.218-3.563-.616l-.676 1.882c1.325.476 2.753.734 4.239.734v-2z" fill="#fff" mask="url(#path-1-inside-1_657_4143)"/><path d="M11.572 12.424a6.565 6.565 0 002.39 1.58l1.218-.99a.213.213 0 01.246 0l2.26 1.488a.652.652 0 01.31.497.672.672 0 01-.203.551l-1.059 1.07a1.267 1.267 0 01-1.173.353 11.259 11.259 0 01-5.539-2.97 11.213 11.213 0 01-2.994-5.55 1.272 1.272 0 01.355-1.172L8.481 6.2a.645.645 0 01.53-.197.637.637 0 01.478.302l1.505 2.28a.21.21 0 010 .247l-.991 1.217c.344.9.88 1.712 1.57 2.375z" fill="#fff"/></svg>