<svg width="27" height="24" fill="none" xmlns="http://www.w3.org/2000/svg"><path fill-rule="evenodd" clip-rule="evenodd" d="M3.182.765C3.477.503 3.832.3 4.222.17a3.282 3.282 0 012.415.134c.37.173.693.414.949.707l3.029 3.459c.555.634.75 1.461.531 2.241l-.923 3.285a.909.909 0 00.008.518 1 1 0 00.293.447l4.146 3.685c.14.125.313.214.504.261.19.047.39.05.583.006l3.693-.82a3.305 3.305 0 011.322-.022c.437.082.847.251 1.2.494l3.89 2.692c1.4.967 1.528 2.805.276 3.916l-1.745 1.551c-1.249 1.11-3.115 1.598-4.855 1.053-4.453-1.392-8.496-3.659-11.829-6.63C4.367 14.183 1.818 10.59.251 6.632-.36 5.087.188 3.426 1.437 2.316L3.182.766z" fill="#C68457"/></svg>