<svg width="25" height="30" fill="none" xmlns="http://www.w3.org/2000/svg"><path d="M12.5.5C9.186.504 6.009 1.705 3.665 3.84 1.322 5.978.004 8.873 0 11.894c-.004 2.468.88 4.87 2.518 6.836 0 0 .341.409.397.468L12.5 29.5l9.59-10.308c.05-.055.392-.463.392-.463v-.003C24.12 16.76 25.005 14.36 25 11.893c-.004-3.02-1.322-5.916-3.666-8.052C18.991 1.705 15.814.504 12.5.5zm0 15.536a4.866 4.866 0 01-2.525-.699A4.252 4.252 0 018.3 13.479a3.803 3.803 0 01-.26-2.393 4.044 4.044 0 011.245-2.122 4.698 4.698 0 012.327-1.133 4.957 4.957 0 012.627.235c.83.314 1.54.845 2.04 1.526a3.89 3.89 0 01.765 2.302c-.001 1.098-.48 2.151-1.333 2.928-.852.776-2.007 1.213-3.212 1.215z" fill="#C68457"/></svg>